<?xml version="1.0" encoding="UTF-8"?>
<svg id="Layer_2" data-name="Layer 2" xmlns="http://www.w3.org/2000/svg" viewBox="0 0 2483.9 330">
  <defs>
    <style>
      .cls-1 {
        fill: #5e2137;
      }
    </style>
  </defs>
  <g id="Layer_1-2" data-name="Layer 1">
    <g>
      <g>
        <path class="cls-1" d="m579.23,183.5h-65.66v76.46h-42.91V69.89h42.91v76.03h65.66v-76.03h42.77v190.08h-42.77v-76.46Z"/>
        <path class="cls-1" d="m744.97,69.89h42.77l75.02,190.08h-45.94l-13.82-38.16h-73.15l-13.97,38.16h-46.08l75.17-190.08Zm-.72,114.19h44.5l-22.03-62.35h-.43l-22.03,62.35Z"/>
        <path class="cls-1" d="m998.99,220.8c8.83,0,16.87-1.3,24.12-3.89,7.25-2.59,12.65-5.13,16.2-7.63l18.43,36.58c-4.51,3.84-12.22,7.73-23.11,11.66-10.9,3.94-23.83,5.9-38.81,5.9-14.02,0-27.17-2.45-39.46-7.34-12.29-4.9-23.11-11.78-32.47-20.66-9.36-8.88-16.7-19.3-22.03-31.25-5.33-11.95-7.99-24.93-7.99-38.95s2.64-27.05,7.92-39.1c5.28-12.05,12.6-22.54,21.96-31.46,9.36-8.93,20.21-15.86,32.54-20.81,12.33-4.94,25.51-7.42,39.53-7.42,14.98,0,27.91,1.97,38.81,5.9,10.89,3.94,18.6,7.83,23.11,11.66l-18.43,36.58c-3.55-2.59-8.95-5.16-16.2-7.7-7.25-2.54-15.29-3.82-24.12-3.82-9.79,0-18.34,1.51-25.63,4.54-7.3,3.02-13.39,7.18-18.29,12.46-4.9,5.28-8.55,11.23-10.94,17.86-2.4,6.62-3.6,13.59-3.6,20.88s1.2,14.42,3.6,21.1c2.4,6.67,6.05,12.65,10.94,17.93,4.9,5.28,10.99,9.43,18.29,12.46,7.29,3.02,15.84,4.54,25.63,4.54Z"/>
        <path class="cls-1" d="m1190.36,161.76l72.29,98.21h-51.41l-58.46-83.09v83.09h-43.06V69.89h43.06v77.76l53.86-77.76h48.53l-64.8,91.87Z"/>
        <path class="cls-1" d="m1491.03,161.76l72.29,98.21h-51.41l-58.46-83.09v83.09h-43.06V69.89h43.06v77.76l53.86-77.76h48.53l-64.8,91.87Z"/>
        <path class="cls-1" d="m1602.92,164.78c0-13.82,2.45-26.71,7.34-38.66,4.9-11.95,11.76-22.39,20.59-31.32,8.83-8.93,19.2-15.89,31.1-20.88,11.9-4.99,24.77-7.49,38.59-7.49s26.95,2.5,38.81,7.49c11.86,4.99,22.18,11.95,30.96,20.88s15.6,19.37,20.45,31.32c4.85,11.95,7.27,24.84,7.27,38.66s-2.35,26.86-7.06,38.81c-4.7,11.95-11.42,22.42-20.16,31.39-8.74,8.98-19.06,15.96-30.96,20.95-11.9,4.99-25.01,7.49-39.31,7.49s-27.86-2.5-39.82-7.49c-11.95-4.99-22.25-11.97-30.89-20.95-8.64-8.97-15.29-19.44-19.94-31.39-4.66-11.95-6.98-24.89-6.98-38.81Zm44.78,0c0,10.85,2.23,20.66,6.7,29.45,4.46,8.78,10.66,15.77,18.58,20.95,7.92,5.18,17.11,7.78,27.58,7.78s19.66-2.59,27.58-7.78c7.92-5.18,14.11-12.17,18.58-20.95,4.46-8.78,6.7-18.6,6.7-29.45s-2.23-20.64-6.7-29.38c-4.46-8.74-10.66-15.72-18.58-20.95-7.92-5.23-17.11-7.85-27.58-7.85s-19.66,2.62-27.58,7.85c-7.92,5.23-14.11,12.22-18.58,20.95-4.46,8.74-6.7,18.53-6.7,29.38Z"/>
        <path class="cls-1" d="m1920.72,66.43c11.81,0,22.13,1.3,30.96,3.89,8.83,2.59,15.93,5.33,21.31,8.21,5.38,2.88,8.64,4.8,9.79,5.76l-20.74,34.7c-1.54-1.15-4.15-2.83-7.85-5.04-3.7-2.21-8.06-4.18-13.1-5.9-5.04-1.73-10.3-2.59-15.77-2.59-7.39,0-13.37,1.32-17.93,3.96-4.56,2.64-6.84,6.55-6.84,11.74,0,3.55,1.22,6.75,3.67,9.58,2.45,2.83,6.19,5.52,11.23,8.06,5.04,2.54,11.45,5.31,19.22,8.28,7.1,2.59,13.78,5.67,20.02,9.22,6.24,3.55,11.74,7.75,16.49,12.6,4.75,4.85,8.52,10.44,11.3,16.78,2.78,6.34,4.18,13.54,4.18,21.6,0,9.6-1.97,17.93-5.9,24.98-3.94,7.06-9.29,12.89-16.06,17.5-6.77,4.61-14.45,8.04-23.04,10.3-8.59,2.25-17.5,3.38-26.71,3.38-13.06,0-24.75-1.49-35.06-4.46-10.32-2.97-18.65-6.19-24.98-9.65s-10.13-5.76-11.38-6.91l21.46-36.14c1.15.86,3.38,2.26,6.7,4.18,3.31,1.92,7.37,3.91,12.17,5.98,4.8,2.07,9.91,3.82,15.34,5.26,5.42,1.44,10.77,2.16,16.06,2.16,8.83,0,15.46-1.7,19.87-5.11,4.41-3.41,6.62-7.9,6.62-13.46,0-4.13-1.39-7.82-4.18-11.09-2.79-3.26-6.96-6.36-12.53-9.29-5.57-2.93-12.53-6.02-20.88-9.29-8.35-3.36-16.15-7.44-23.4-12.24-7.25-4.8-13.13-10.8-17.64-18-4.51-7.2-6.77-16.13-6.77-26.78s3-19.89,9-27.72c6-7.82,13.92-13.85,23.76-18.07,9.84-4.22,20.38-6.34,31.61-6.34Z"/>
        <path class="cls-1" d="m2042.98,69.89h43.06v190.08h-43.06V69.89Z"/>
        <path class="cls-1" d="m2248.75,220.8c8.83,0,16.87-1.3,24.12-3.89,7.25-2.59,12.65-5.13,16.2-7.63l18.43,36.58c-4.51,3.84-12.22,7.73-23.11,11.66-10.9,3.94-23.83,5.9-38.81,5.9-14.02,0-27.17-2.45-39.46-7.34-12.29-4.9-23.11-11.78-32.47-20.66-9.36-8.88-16.7-19.3-22.03-31.25-5.33-11.95-7.99-24.93-7.99-38.95s2.64-27.05,7.92-39.1c5.28-12.05,12.6-22.54,21.96-31.46,9.36-8.93,20.21-15.86,32.54-20.81,12.33-4.94,25.51-7.42,39.53-7.42,14.98,0,27.91,1.97,38.81,5.9,10.89,3.94,18.6,7.83,23.11,11.66l-18.43,36.58c-3.55-2.59-8.95-5.16-16.2-7.7-7.25-2.54-15.29-3.82-24.12-3.82-9.79,0-18.34,1.51-25.63,4.54-7.3,3.02-13.39,7.18-18.29,12.46-4.9,5.28-8.55,11.23-10.94,17.86-2.4,6.62-3.6,13.59-3.6,20.88s1.2,14.42,3.6,21.1c2.4,6.67,6.05,12.65,10.94,17.93,4.9,5.28,10.99,9.43,18.29,12.46,7.29,3.02,15.84,4.54,25.63,4.54Z"/>
        <path class="cls-1" d="m2362.51,69.89h121.39v37.73h-78.48v38.74h77.76v36.58h-77.76v39.31h78.48v37.73h-121.39V69.89Z"/>
      </g>
      <g>
        <g>
          <path class="cls-1" d="m123.33,153.23c4.3,0,8.5.88,12.6,2.62,4.1,1.75,7.47,4.51,10.12,8.29,2.65,3.78,3.98,8.74,3.98,14.89v37.58h-22.8v-33.83c0-4.4-.99-7.71-2.96-9.94-1.98-2.22-4.66-3.34-8.06-3.34-2.25,0-4.4.59-6.45,1.76-2.05,1.18-3.71,2.83-4.99,4.95-1.28,2.13-1.91,4.56-1.91,7.31v33.08h-22.88v-103.2h22.88v50.7c.55-1.65,1.79-3.31,3.71-4.99,1.92-1.67,4.35-3.08,7.28-4.2,2.92-1.12,6.09-1.69,9.49-1.69Z"/>
          <path class="cls-1" d="m229.53,155.02h25.8l-29.02,29.4,32.02,32.17h-26.4l-23.78-24.75v24.75h-22.8v-103.2h22.8v63.08l21.38-21.45Z"/>
        </g>
        <path class="cls-1" d="m300,30v270H30V30h270M330,0H0v330h330V0h0Z"/>
      </g>
    </g>
  </g>
</svg>